<?xml version="1.0" encoding="UTF-8"?>
<svg id="Layer_1" data-name="Layer 1" xmlns="http://www.w3.org/2000/svg" viewBox="0 0 3.0781 3.123">
  <defs>
    <style>
      .cls-1 {
        fill: #0091d3;
      }
    </style>
  </defs>
  <path class="cls-1" d="M1.426.4301c-.0824-.0764-.1362-.2123-.2474-.2292-.0785-.0119-.204.0934-.1711.1656.0776.1701.2788.2493.4183.3737v.6052c-.1691-.1105-.3383-.221-.5075-.3315-.028-.1844.0154-.3954-.0841-.5532-.0423-.0671-.1991-.0198-.2322.0523-.0469.102.0377.2214.057.3321-.1025-.0669-.1851-.2007-.3075-.2006-.0796,0-.1616.1269-.1297.1998.0482.1102.2014.1315.3023.197-.1053.025-.2444-.0064-.3159.0749-.0524.0595-.0336.2207.0447.2337.1814.0304.3563-.0911.5344-.1366.1732.113.3464.226.5196.339-.1795.0978-.359.1955-.5385.2932-.1758-.0628-.3412-.201-.5275-.1884-.0791.0053-.1115.1657-.0638.2289.0677.0897.2131.0717.3196.1075-.1073.0585-.2635.0679-.322.1752-.038.0696.0347.2022.1135.2091.1199.0105.2114-.1151.3171-.1726-.0281.1047-.1224.2125-.0842.314.028.0744.1793.1335.2279.0706.1123-.1455.0885-.3567.1327-.5352.1814-.0988.3628-.1975.5441-.2962v.6116c-.1396.1244-.3408.2035-.4183.3737-.0329.0723.0926.1775.1711.1656.1111-.0169.165-.1526.2472-.2292,0,.1222-.0664.264,0,.3666.0431.0665.1941.0662.2376,0,.0662-.1007,0-.2409,0-.3613.0786.0747.1279.2088.2351.2248.0786.0118.2031-.0929.1714-.1657-.0735-.1687-.271-.249-.4065-.3733v-.5858c.1638.1068.3275.2137.4913.3205.0299.1814-.011.3904.0898.5441.0435.0664.1984.019.2321-.0529.0459-.098-.0392-.2129-.059-.3194.101.0657.1823.1981.3027.1973.0795-.0005.1623-.1272.1301-.1998-.0496-.1119-.205-.1336-.3075-.2005.109-.0269.2521.0024.3269-.0814.0529-.0592.0338-.2221-.0447-.2338-.1849-.0278-.3611.0972-.5417.1458-.171-.1115-.3421-.223-.5131-.3346.1814-.0988.3627-.1976.544-.2964.1745.0596.3398.1948.5234.1788.0792-.0069.1106-.1662.0632-.2299-.0648-.0868-.2062-.0666-.3094-.0995.1056-.0576.2599-.0666.3171-.1724.0377-.0698-.0344-.2028-.1135-.2091-.122-.0098-.215.117-.3225.1755.0279-.1089.122-.2212.0835-.3268-.0272-.0747-.1802-.1352-.2276-.0714-.1115.15-.085.364-.1276.546-.1792.0976-.3583.1952-.5375.2928v-.619c.1355-.1245.333-.2047.4065-.3734.0318-.0728-.0927-.1775-.1714-.1657-.1072.0161-.1568.1499-.2351.2248,0-.1204.0662-.2606,0-.3613-.0405-.045-.2082-.0594-.2443.0165-.0467.0981.0066.2569.0068.35h0ZM1.426.4301"/>
</svg>